<svg xmlns="http://www.w3.org/2000/svg" viewBox="0 0 48 48">
  <defs>
    <linearGradient id="g" x1="0" y1="0" x2="1" y2="1">
      <stop offset="0%" stop-color="#ec4899"/>
      <stop offset="100%" stop-color="#8b5cf6"/>
    </linearGradient>
  </defs>
  <rect width="48" height="48" rx="13" fill="url(#g)"/>
  <path d="M11 13h26a3 3 0 0 1 3 3v14a3 3 0 0 1-3 3H23l-7 6v-6h-5a3 3 0 0 1-3-3V16a3 3 0 0 1 3-3Z" fill="#fff"/>
  <path d="M18 20h3v2h3v-2h3v2h2v3h-2v2h-2v2h-3v-2h-2v-2h-2v-3h2Z" fill="#a855f7"/>
</svg>
